<svg xmlns="http://www.w3.org/2000/svg" xmlns:xlink="http://www.w3.org/1999/xlink" viewBox="0 0 59.37 66.69"><defs><style>.cls-1{fill:url(#linear-gradient);}.cls-2{fill:url(#linear-gradient-2);}</style><linearGradient id="linear-gradient" x1="29.69" y1="66.69" x2="29.69" gradientUnits="userSpaceOnUse"><stop offset="0" stop-color="#a1dbea"/><stop offset="0.22" stop-color="#3e8a93"/><stop offset="0.33" stop-color="#146785"/><stop offset="0.4" stop-color="#00577f"/><stop offset="0.44" stop-color="#205183"/><stop offset="0.54" stop-color="#75418c"/><stop offset="0.59" stop-color="#973b90"/><stop offset="0.67" stop-color="#c2388e"/><stop offset="0.76" stop-color="#ea358d"/><stop offset="0.87" stop-color="#f56d7b"/><stop offset="0.95" stop-color="#fc926f"/><stop offset="1" stop-color="#ffa06a"/></linearGradient><linearGradient id="linear-gradient-2" x1="33.07" y1="47.37" x2="33.07" y2="19.32" xlink:href="#linear-gradient"/></defs><title>CR-badge-full-color_RGB</title><g id="Layer_2" data-name="Layer 2"><g id="Layer_3" data-name="Layer 3"><path class="cls-1" d="M49.12,49.23a23,23,0,0,1-16,6.53A22.69,22.69,0,1,1,49,17.11L51.93,20l7.44-7.44-2.9-2.9A32.9,32.9,0,0,0,33.07,0a33.35,33.35,0,0,0,0,66.69,32.07,32.07,0,0,0,23.47-10l2.76-2.89L52,46.49Z"/><path class="cls-2" d="M19.05,33.35a14,14,0,0,0,14,14,14.21,14.21,0,0,0,14-14,14,14,0,1,0-28,0Z"/></g></g></svg>